<mxfile host="Electron" agent="Mozilla/5.0 (Windows NT 10.0; Win64; x64) AppleWebKit/537.36 (KHTML, like Gecko) draw.io/28.2.5 Chrome/138.0.7204.251 Electron/37.6.1 Safari/537.36" version="28.2.5">
  <diagram name="PÃ¡gina-1" id="3dMRRpNC93atFpWRxJ5C">
    <mxGraphModel dx="2015" dy="741" grid="1" gridSize="10" guides="1" tooltips="1" connect="1" arrows="1" fold="1" page="1" pageScale="1" pageWidth="827" pageHeight="1169" math="0" shadow="0">
      <root>
        <mxCell id="0" />
        <mxCell id="1" parent="0" />
        <mxCell id="x2BgTqmQhDXGzZZhITCt-1" value="" style="whiteSpace=wrap;html=1;aspect=fixed;" vertex="1" parent="1">
          <mxGeometry x="330" y="150" width="110" height="110" as="geometry" />
        </mxCell>
        <mxCell id="x2BgTqmQhDXGzZZhITCt-2" value="Apresentacao" style="text;html=1;align=center;verticalAlign=middle;resizable=0;points=[];autosize=1;strokeColor=none;fillColor=none;" vertex="1" parent="1">
          <mxGeometry x="335" y="150" width="100" height="30" as="geometry" />
        </mxCell>
        <mxCell id="x2BgTqmQhDXGzZZhITCt-3" value="WebUI" style="swimlane;fontStyle=1;align=center;verticalAlign=top;childLayout=stackLayout;horizontal=1;startSize=26;horizontalStack=0;resizeParent=1;resizeParentMax=0;resizeLast=0;collapsible=1;marginBottom=0;whiteSpace=wrap;html=1;" vertex="1" parent="1">
          <mxGeometry x="340" y="188" width="90" height="34" as="geometry" />
        </mxCell>
        <mxCell id="x2BgTqmQhDXGzZZhITCt-5" value="" style="line;strokeWidth=1;fillColor=none;align=left;verticalAlign=middle;spacingTop=-1;spacingLeft=3;spacingRight=3;rotatable=0;labelPosition=right;points=[];portConstraint=eastwest;strokeColor=inherit;" vertex="1" parent="x2BgTqmQhDXGzZZhITCt-3">
          <mxGeometry y="26" width="90" height="8" as="geometry" />
        </mxCell>
        <mxCell id="x2BgTqmQhDXGzZZhITCt-11" value="" style="rounded=0;whiteSpace=wrap;html=1;" vertex="1" parent="1">
          <mxGeometry x="110" y="280" width="510" height="130" as="geometry" />
        </mxCell>
        <mxCell id="x2BgTqmQhDXGzZZhITCt-12" value="ServicoInscricoes" style="swimlane;fontStyle=1;align=center;verticalAlign=top;childLayout=stackLayout;horizontal=1;startSize=26;horizontalStack=0;resizeParent=1;resizeParentMax=0;resizeLast=0;collapsible=1;marginBottom=0;whiteSpace=wrap;html=1;" vertex="1" parent="1">
          <mxGeometry x="120" y="328" width="110" height="34" as="geometry">
            <mxRectangle x="80" y="328" width="130" height="30" as="alternateBounds" />
          </mxGeometry>
        </mxCell>
        <mxCell id="x2BgTqmQhDXGzZZhITCt-13" value="" style="line;strokeWidth=1;fillColor=none;align=left;verticalAlign=middle;spacingTop=-1;spacingLeft=3;spacingRight=3;rotatable=0;labelPosition=right;points=[];portConstraint=eastwest;strokeColor=inherit;" vertex="1" parent="x2BgTqmQhDXGzZZhITCt-12">
          <mxGeometry y="26" width="110" height="8" as="geometry" />
        </mxCell>
        <mxCell id="x2BgTqmQhDXGzZZhITCt-14" value="Aplicacao" style="text;html=1;align=center;verticalAlign=middle;resizable=0;points=[];autosize=1;strokeColor=none;fillColor=none;" vertex="1" parent="1">
          <mxGeometry x="325" y="280" width="80" height="30" as="geometry" />
        </mxCell>
        <mxCell id="x2BgTqmQhDXGzZZhITCt-15" value="ServicoAlocacao" style="swimlane;fontStyle=1;align=center;verticalAlign=top;childLayout=stackLayout;horizontal=1;startSize=26;horizontalStack=0;resizeParent=1;resizeParentMax=0;resizeLast=0;collapsible=1;marginBottom=0;whiteSpace=wrap;html=1;" vertex="1" parent="1">
          <mxGeometry x="240" y="328" width="110" height="34" as="geometry" />
        </mxCell>
        <mxCell id="x2BgTqmQhDXGzZZhITCt-16" value="" style="line;strokeWidth=1;fillColor=none;align=left;verticalAlign=middle;spacingTop=-1;spacingLeft=3;spacingRight=3;rotatable=0;labelPosition=right;points=[];portConstraint=eastwest;strokeColor=inherit;" vertex="1" parent="x2BgTqmQhDXGzZZhITCt-15">
          <mxGeometry y="26" width="110" height="8" as="geometry" />
        </mxCell>
        <mxCell id="x2BgTqmQhDXGzZZhITCt-17" value="ServicoResultados" style="swimlane;fontStyle=1;align=center;verticalAlign=top;childLayout=stackLayout;horizontal=1;startSize=26;horizontalStack=0;resizeParent=1;resizeParentMax=0;resizeLast=0;collapsible=1;marginBottom=0;whiteSpace=wrap;html=1;" vertex="1" parent="1">
          <mxGeometry x="360" y="328" width="120" height="34" as="geometry" />
        </mxCell>
        <mxCell id="x2BgTqmQhDXGzZZhITCt-18" value="" style="line;strokeWidth=1;fillColor=none;align=left;verticalAlign=middle;spacingTop=-1;spacingLeft=3;spacingRight=3;rotatable=0;labelPosition=right;points=[];portConstraint=eastwest;strokeColor=inherit;" vertex="1" parent="x2BgTqmQhDXGzZZhITCt-17">
          <mxGeometry y="26" width="120" height="8" as="geometry" />
        </mxCell>
        <mxCell id="x2BgTqmQhDXGzZZhITCt-20" value="ServicosRelatorios" style="swimlane;fontStyle=1;align=center;verticalAlign=top;childLayout=stackLayout;horizontal=1;startSize=26;horizontalStack=0;resizeParent=1;resizeParentMax=0;resizeLast=0;collapsible=1;marginBottom=0;whiteSpace=wrap;html=1;" vertex="1" parent="1">
          <mxGeometry x="490" y="328" width="120" height="34" as="geometry" />
        </mxCell>
        <mxCell id="x2BgTqmQhDXGzZZhITCt-21" value="" style="line;strokeWidth=1;fillColor=none;align=left;verticalAlign=middle;spacingTop=-1;spacingLeft=3;spacingRight=3;rotatable=0;labelPosition=right;points=[];portConstraint=eastwest;strokeColor=inherit;" vertex="1" parent="x2BgTqmQhDXGzZZhITCt-20">
          <mxGeometry y="26" width="120" height="8" as="geometry" />
        </mxCell>
        <mxCell id="x2BgTqmQhDXGzZZhITCt-24" value="" style="rounded=0;whiteSpace=wrap;html=1;" vertex="1" parent="1">
          <mxGeometry x="-110" y="440" width="640" height="130" as="geometry" />
        </mxCell>
        <mxCell id="x2BgTqmQhDXGzZZhITCt-25" value="Inscricao" style="swimlane;fontStyle=1;align=center;verticalAlign=top;childLayout=stackLayout;horizontal=1;startSize=26;horizontalStack=0;resizeParent=1;resizeParentMax=0;resizeLast=0;collapsible=1;marginBottom=0;whiteSpace=wrap;html=1;" vertex="1" parent="1">
          <mxGeometry x="-100" y="488" width="90" height="34" as="geometry">
            <mxRectangle x="80" y="328" width="130" height="30" as="alternateBounds" />
          </mxGeometry>
        </mxCell>
        <mxCell id="x2BgTqmQhDXGzZZhITCt-26" value="" style="line;strokeWidth=1;fillColor=none;align=left;verticalAlign=middle;spacingTop=-1;spacingLeft=3;spacingRight=3;rotatable=0;labelPosition=right;points=[];portConstraint=eastwest;strokeColor=inherit;" vertex="1" parent="x2BgTqmQhDXGzZZhITCt-25">
          <mxGeometry y="26" width="90" height="8" as="geometry" />
        </mxCell>
        <mxCell id="x2BgTqmQhDXGzZZhITCt-27" value="Dominio" style="text;html=1;align=center;verticalAlign=middle;resizable=0;points=[];autosize=1;strokeColor=none;fillColor=none;" vertex="1" parent="1">
          <mxGeometry x="175" y="440" width="70" height="30" as="geometry" />
        </mxCell>
        <mxCell id="x2BgTqmQhDXGzZZhITCt-28" value="Atleta" style="swimlane;fontStyle=1;align=center;verticalAlign=top;childLayout=stackLayout;horizontal=1;startSize=26;horizontalStack=0;resizeParent=1;resizeParentMax=0;resizeLast=0;collapsible=1;marginBottom=0;whiteSpace=wrap;html=1;" vertex="1" parent="1">
          <mxGeometry y="488" width="80" height="34" as="geometry" />
        </mxCell>
        <mxCell id="x2BgTqmQhDXGzZZhITCt-29" value="" style="line;strokeWidth=1;fillColor=none;align=left;verticalAlign=middle;spacingTop=-1;spacingLeft=3;spacingRight=3;rotatable=0;labelPosition=right;points=[];portConstraint=eastwest;strokeColor=inherit;" vertex="1" parent="x2BgTqmQhDXGzZZhITCt-28">
          <mxGeometry y="26" width="80" height="8" as="geometry" />
        </mxCell>
        <mxCell id="x2BgTqmQhDXGzZZhITCt-30" value="Local" style="swimlane;fontStyle=1;align=center;verticalAlign=top;childLayout=stackLayout;horizontal=1;startSize=26;horizontalStack=0;resizeParent=1;resizeParentMax=0;resizeLast=0;collapsible=1;marginBottom=0;whiteSpace=wrap;html=1;" vertex="1" parent="1">
          <mxGeometry x="90" y="488" width="60" height="34" as="geometry" />
        </mxCell>
        <mxCell id="x2BgTqmQhDXGzZZhITCt-31" value="" style="line;strokeWidth=1;fillColor=none;align=left;verticalAlign=middle;spacingTop=-1;spacingLeft=3;spacingRight=3;rotatable=0;labelPosition=right;points=[];portConstraint=eastwest;strokeColor=inherit;" vertex="1" parent="x2BgTqmQhDXGzZZhITCt-30">
          <mxGeometry y="26" width="60" height="8" as="geometry" />
        </mxCell>
        <mxCell id="x2BgTqmQhDXGzZZhITCt-32" value="Pais" style="swimlane;fontStyle=1;align=center;verticalAlign=top;childLayout=stackLayout;horizontal=1;startSize=26;horizontalStack=0;resizeParent=1;resizeParentMax=0;resizeLast=0;collapsible=1;marginBottom=0;whiteSpace=wrap;html=1;" vertex="1" parent="1">
          <mxGeometry x="160" y="488" width="60" height="34" as="geometry" />
        </mxCell>
        <mxCell id="x2BgTqmQhDXGzZZhITCt-33" value="" style="line;strokeWidth=1;fillColor=none;align=left;verticalAlign=middle;spacingTop=-1;spacingLeft=3;spacingRight=3;rotatable=0;labelPosition=right;points=[];portConstraint=eastwest;strokeColor=inherit;" vertex="1" parent="x2BgTqmQhDXGzZZhITCt-32">
          <mxGeometry y="26" width="60" height="8" as="geometry" />
        </mxCell>
        <mxCell id="x2BgTqmQhDXGzZZhITCt-44" value="Competicao" style="swimlane;fontStyle=1;align=center;verticalAlign=top;childLayout=stackLayout;horizontal=1;startSize=26;horizontalStack=0;resizeParent=1;resizeParentMax=0;resizeLast=0;collapsible=1;marginBottom=0;whiteSpace=wrap;html=1;" vertex="1" parent="1">
          <mxGeometry x="230" y="488" width="80" height="34" as="geometry" />
        </mxCell>
        <mxCell id="x2BgTqmQhDXGzZZhITCt-45" value="" style="line;strokeWidth=1;fillColor=none;align=left;verticalAlign=middle;spacingTop=-1;spacingLeft=3;spacingRight=3;rotatable=0;labelPosition=right;points=[];portConstraint=eastwest;strokeColor=inherit;" vertex="1" parent="x2BgTqmQhDXGzZZhITCt-44">
          <mxGeometry y="26" width="80" height="8" as="geometry" />
        </mxCell>
        <mxCell id="x2BgTqmQhDXGzZZhITCt-46" value="Resultado" style="swimlane;fontStyle=1;align=center;verticalAlign=top;childLayout=stackLayout;horizontal=1;startSize=26;horizontalStack=0;resizeParent=1;resizeParentMax=0;resizeLast=0;collapsible=1;marginBottom=0;whiteSpace=wrap;html=1;" vertex="1" parent="1">
          <mxGeometry x="320" y="488" width="70" height="34" as="geometry" />
        </mxCell>
        <mxCell id="x2BgTqmQhDXGzZZhITCt-47" value="" style="line;strokeWidth=1;fillColor=none;align=left;verticalAlign=middle;spacingTop=-1;spacingLeft=3;spacingRight=3;rotatable=0;labelPosition=right;points=[];portConstraint=eastwest;strokeColor=inherit;" vertex="1" parent="x2BgTqmQhDXGzZZhITCt-46">
          <mxGeometry y="26" width="70" height="8" as="geometry" />
        </mxCell>
        <mxCell id="x2BgTqmQhDXGzZZhITCt-48" value="ContagemMedalhas" style="swimlane;fontStyle=1;align=center;verticalAlign=top;childLayout=stackLayout;horizontal=1;startSize=26;horizontalStack=0;resizeParent=1;resizeParentMax=0;resizeLast=0;collapsible=1;marginBottom=0;whiteSpace=wrap;html=1;" vertex="1" parent="1">
          <mxGeometry x="400" y="488" width="120" height="34" as="geometry" />
        </mxCell>
        <mxCell id="x2BgTqmQhDXGzZZhITCt-49" value="" style="line;strokeWidth=1;fillColor=none;align=left;verticalAlign=middle;spacingTop=-1;spacingLeft=3;spacingRight=3;rotatable=0;labelPosition=right;points=[];portConstraint=eastwest;strokeColor=inherit;" vertex="1" parent="x2BgTqmQhDXGzZZhITCt-48">
          <mxGeometry y="26" width="120" height="8" as="geometry" />
        </mxCell>
        <mxCell id="x2BgTqmQhDXGzZZhITCt-50" value="" style="rounded=0;whiteSpace=wrap;html=1;" vertex="1" parent="1">
          <mxGeometry x="590" y="440" width="730" height="130" as="geometry" />
        </mxCell>
        <mxCell id="x2BgTqmQhDXGzZZhITCt-51" value="RespositorioAtleta" style="swimlane;fontStyle=1;align=center;verticalAlign=top;childLayout=stackLayout;horizontal=1;startSize=26;horizontalStack=0;resizeParent=1;resizeParentMax=0;resizeLast=0;collapsible=1;marginBottom=0;whiteSpace=wrap;html=1;" vertex="1" parent="1">
          <mxGeometry x="600" y="488" width="120" height="34" as="geometry">
            <mxRectangle x="80" y="328" width="130" height="30" as="alternateBounds" />
          </mxGeometry>
        </mxCell>
        <mxCell id="x2BgTqmQhDXGzZZhITCt-52" value="" style="line;strokeWidth=1;fillColor=none;align=left;verticalAlign=middle;spacingTop=-1;spacingLeft=3;spacingRight=3;rotatable=0;labelPosition=right;points=[];portConstraint=eastwest;strokeColor=inherit;" vertex="1" parent="x2BgTqmQhDXGzZZhITCt-51">
          <mxGeometry y="26" width="120" height="8" as="geometry" />
        </mxCell>
        <mxCell id="x2BgTqmQhDXGzZZhITCt-53" value="Infraestrutura" style="text;html=1;align=center;verticalAlign=middle;resizable=0;points=[];autosize=1;strokeColor=none;fillColor=none;" vertex="1" parent="1">
          <mxGeometry x="910" y="440" width="90" height="30" as="geometry" />
        </mxCell>
        <mxCell id="x2BgTqmQhDXGzZZhITCt-54" value="RepositorioCompeticao" style="swimlane;fontStyle=1;align=center;verticalAlign=top;childLayout=stackLayout;horizontal=1;startSize=26;horizontalStack=0;resizeParent=1;resizeParentMax=0;resizeLast=0;collapsible=1;marginBottom=0;whiteSpace=wrap;html=1;" vertex="1" parent="1">
          <mxGeometry x="730" y="488" width="150" height="34" as="geometry" />
        </mxCell>
        <mxCell id="x2BgTqmQhDXGzZZhITCt-55" value="" style="line;strokeWidth=1;fillColor=none;align=left;verticalAlign=middle;spacingTop=-1;spacingLeft=3;spacingRight=3;rotatable=0;labelPosition=right;points=[];portConstraint=eastwest;strokeColor=inherit;" vertex="1" parent="x2BgTqmQhDXGzZZhITCt-54">
          <mxGeometry y="26" width="150" height="8" as="geometry" />
        </mxCell>
        <mxCell id="x2BgTqmQhDXGzZZhITCt-56" value="RepositorioLocal" style="swimlane;fontStyle=1;align=center;verticalAlign=top;childLayout=stackLayout;horizontal=1;startSize=26;horizontalStack=0;resizeParent=1;resizeParentMax=0;resizeLast=0;collapsible=1;marginBottom=0;whiteSpace=wrap;html=1;" vertex="1" parent="1">
          <mxGeometry x="890" y="488" width="120" height="34" as="geometry" />
        </mxCell>
        <mxCell id="x2BgTqmQhDXGzZZhITCt-57" value="" style="line;strokeWidth=1;fillColor=none;align=left;verticalAlign=middle;spacingTop=-1;spacingLeft=3;spacingRight=3;rotatable=0;labelPosition=right;points=[];portConstraint=eastwest;strokeColor=inherit;" vertex="1" parent="x2BgTqmQhDXGzZZhITCt-56">
          <mxGeometry y="26" width="120" height="8" as="geometry" />
        </mxCell>
        <mxCell id="x2BgTqmQhDXGzZZhITCt-58" value="RepositorioResultado" style="swimlane;fontStyle=1;align=center;verticalAlign=top;childLayout=stackLayout;horizontal=1;startSize=26;horizontalStack=0;resizeParent=1;resizeParentMax=0;resizeLast=0;collapsible=1;marginBottom=0;whiteSpace=wrap;html=1;" vertex="1" parent="1">
          <mxGeometry x="1020" y="488" width="140" height="34" as="geometry" />
        </mxCell>
        <mxCell id="x2BgTqmQhDXGzZZhITCt-59" value="" style="line;strokeWidth=1;fillColor=none;align=left;verticalAlign=middle;spacingTop=-1;spacingLeft=3;spacingRight=3;rotatable=0;labelPosition=right;points=[];portConstraint=eastwest;strokeColor=inherit;" vertex="1" parent="x2BgTqmQhDXGzZZhITCt-58">
          <mxGeometry y="26" width="140" height="8" as="geometry" />
        </mxCell>
        <mxCell id="x2BgTqmQhDXGzZZhITCt-60" value="ProvedorRelatorios" style="swimlane;fontStyle=1;align=center;verticalAlign=top;childLayout=stackLayout;horizontal=1;startSize=26;horizontalStack=0;resizeParent=1;resizeParentMax=0;resizeLast=0;collapsible=1;marginBottom=0;whiteSpace=wrap;html=1;" vertex="1" parent="1">
          <mxGeometry x="1171" y="488" width="140" height="34" as="geometry" />
        </mxCell>
        <mxCell id="x2BgTqmQhDXGzZZhITCt-61" value="" style="line;strokeWidth=1;fillColor=none;align=left;verticalAlign=middle;spacingTop=-1;spacingLeft=3;spacingRight=3;rotatable=0;labelPosition=right;points=[];portConstraint=eastwest;strokeColor=inherit;" vertex="1" parent="x2BgTqmQhDXGzZZhITCt-60">
          <mxGeometry y="26" width="140" height="8" as="geometry" />
        </mxCell>
        <mxCell id="x2BgTqmQhDXGzZZhITCt-65" style="edgeStyle=orthogonalEdgeStyle;rounded=0;orthogonalLoop=1;jettySize=auto;html=1;exitX=1;exitY=0.5;exitDx=0;exitDy=0;entryX=0.458;entryY=0.127;entryDx=0;entryDy=0;entryPerimeter=0;" edge="1" parent="1" source="x2BgTqmQhDXGzZZhITCt-3" target="x2BgTqmQhDXGzZZhITCt-20">
          <mxGeometry relative="1" as="geometry" />
        </mxCell>
        <mxCell id="x2BgTqmQhDXGzZZhITCt-63" style="edgeStyle=orthogonalEdgeStyle;rounded=0;orthogonalLoop=1;jettySize=auto;html=1;exitX=0.25;exitY=1;exitDx=0;exitDy=0;" edge="1" parent="1" source="x2BgTqmQhDXGzZZhITCt-3" target="x2BgTqmQhDXGzZZhITCt-15">
          <mxGeometry relative="1" as="geometry" />
        </mxCell>
        <mxCell id="x2BgTqmQhDXGzZZhITCt-62" style="edgeStyle=orthogonalEdgeStyle;rounded=0;orthogonalLoop=1;jettySize=auto;html=1;exitX=0;exitY=0.5;exitDx=0;exitDy=0;entryX=0.5;entryY=0;entryDx=0;entryDy=0;" edge="1" parent="1" source="x2BgTqmQhDXGzZZhITCt-3" target="x2BgTqmQhDXGzZZhITCt-12">
          <mxGeometry relative="1" as="geometry" />
        </mxCell>
        <mxCell id="x2BgTqmQhDXGzZZhITCt-64" style="edgeStyle=orthogonalEdgeStyle;rounded=0;orthogonalLoop=1;jettySize=auto;html=1;exitX=0.75;exitY=1;exitDx=0;exitDy=0;entryX=0.5;entryY=0;entryDx=0;entryDy=0;" edge="1" parent="1" source="x2BgTqmQhDXGzZZhITCt-3" target="x2BgTqmQhDXGzZZhITCt-17">
          <mxGeometry relative="1" as="geometry" />
        </mxCell>
        <mxCell id="x2BgTqmQhDXGzZZhITCt-66" style="edgeStyle=orthogonalEdgeStyle;rounded=0;orthogonalLoop=1;jettySize=auto;html=1;exitX=0;exitY=1;exitDx=0;exitDy=0;entryX=0.5;entryY=0;entryDx=0;entryDy=0;" edge="1" parent="1" source="x2BgTqmQhDXGzZZhITCt-12" target="x2BgTqmQhDXGzZZhITCt-25">
          <mxGeometry relative="1" as="geometry" />
        </mxCell>
        <mxCell id="x2BgTqmQhDXGzZZhITCt-67" style="edgeStyle=orthogonalEdgeStyle;rounded=0;orthogonalLoop=1;jettySize=auto;html=1;exitX=0.25;exitY=1;exitDx=0;exitDy=0;entryX=0.75;entryY=0;entryDx=0;entryDy=0;" edge="1" parent="1" source="x2BgTqmQhDXGzZZhITCt-12" target="x2BgTqmQhDXGzZZhITCt-28">
          <mxGeometry relative="1" as="geometry" />
        </mxCell>
        <mxCell id="x2BgTqmQhDXGzZZhITCt-68" style="edgeStyle=orthogonalEdgeStyle;rounded=0;orthogonalLoop=1;jettySize=auto;html=1;exitX=0.75;exitY=1;exitDx=0;exitDy=0;entryX=0.25;entryY=0;entryDx=0;entryDy=0;" edge="1" parent="1" source="x2BgTqmQhDXGzZZhITCt-12" target="x2BgTqmQhDXGzZZhITCt-44">
          <mxGeometry relative="1" as="geometry" />
        </mxCell>
        <mxCell id="x2BgTqmQhDXGzZZhITCt-69" style="edgeStyle=orthogonalEdgeStyle;rounded=0;orthogonalLoop=1;jettySize=auto;html=1;exitX=0;exitY=1;exitDx=0;exitDy=0;entryX=0.75;entryY=0;entryDx=0;entryDy=0;" edge="1" parent="1" source="x2BgTqmQhDXGzZZhITCt-15" target="x2BgTqmQhDXGzZZhITCt-30">
          <mxGeometry relative="1" as="geometry">
            <Array as="points">
              <mxPoint x="240" y="450" />
              <mxPoint x="135" y="450" />
            </Array>
          </mxGeometry>
        </mxCell>
        <mxCell id="x2BgTqmQhDXGzZZhITCt-72" style="edgeStyle=orthogonalEdgeStyle;rounded=0;orthogonalLoop=1;jettySize=auto;html=1;exitX=0.25;exitY=1;exitDx=0;exitDy=0;entryX=0.5;entryY=0;entryDx=0;entryDy=0;" edge="1" parent="1" source="x2BgTqmQhDXGzZZhITCt-15" target="x2BgTqmQhDXGzZZhITCt-44">
          <mxGeometry relative="1" as="geometry" />
        </mxCell>
        <mxCell id="x2BgTqmQhDXGzZZhITCt-71" style="edgeStyle=orthogonalEdgeStyle;rounded=0;orthogonalLoop=1;jettySize=auto;html=1;exitX=0;exitY=1;exitDx=0;exitDy=0;entryX=0.75;entryY=0;entryDx=0;entryDy=0;" edge="1" parent="1" source="x2BgTqmQhDXGzZZhITCt-17" target="x2BgTqmQhDXGzZZhITCt-44">
          <mxGeometry relative="1" as="geometry" />
        </mxCell>
        <mxCell id="x2BgTqmQhDXGzZZhITCt-73" style="edgeStyle=orthogonalEdgeStyle;rounded=0;orthogonalLoop=1;jettySize=auto;html=1;exitX=0.25;exitY=1;exitDx=0;exitDy=0;entryX=0.286;entryY=0.353;entryDx=0;entryDy=0;entryPerimeter=0;" edge="1" parent="1" source="x2BgTqmQhDXGzZZhITCt-17" target="x2BgTqmQhDXGzZZhITCt-46">
          <mxGeometry relative="1" as="geometry">
            <Array as="points">
              <mxPoint x="380" y="362" />
              <mxPoint x="380" y="450" />
              <mxPoint x="340" y="450" />
            </Array>
          </mxGeometry>
        </mxCell>
        <mxCell id="x2BgTqmQhDXGzZZhITCt-74" style="edgeStyle=orthogonalEdgeStyle;rounded=0;orthogonalLoop=1;jettySize=auto;html=1;exitX=0;exitY=1;exitDx=0;exitDy=0;entryX=1;entryY=0;entryDx=0;entryDy=0;" edge="1" parent="1" source="x2BgTqmQhDXGzZZhITCt-20" target="x2BgTqmQhDXGzZZhITCt-46">
          <mxGeometry relative="1" as="geometry">
            <Array as="points">
              <mxPoint x="490" y="450" />
              <mxPoint x="390" y="450" />
            </Array>
          </mxGeometry>
        </mxCell>
        <mxCell id="x2BgTqmQhDXGzZZhITCt-75" style="edgeStyle=orthogonalEdgeStyle;rounded=0;orthogonalLoop=1;jettySize=auto;html=1;exitX=0.25;exitY=1;exitDx=0;exitDy=0;entryX=1;entryY=0;entryDx=0;entryDy=0;" edge="1" parent="1" source="x2BgTqmQhDXGzZZhITCt-20" target="x2BgTqmQhDXGzZZhITCt-48">
          <mxGeometry relative="1" as="geometry" />
        </mxCell>
        <mxCell id="x2BgTqmQhDXGzZZhITCt-76" style="edgeStyle=orthogonalEdgeStyle;rounded=0;orthogonalLoop=1;jettySize=auto;html=1;exitX=0.902;exitY=0.938;exitDx=0;exitDy=0;entryX=0.25;entryY=0;entryDx=0;entryDy=0;exitPerimeter=0;" edge="1" parent="1" source="x2BgTqmQhDXGzZZhITCt-13" target="x2BgTqmQhDXGzZZhITCt-51">
          <mxGeometry relative="1" as="geometry">
            <Array as="points">
              <mxPoint x="219" y="400" />
              <mxPoint x="630" y="400" />
            </Array>
          </mxGeometry>
        </mxCell>
        <mxCell id="x2BgTqmQhDXGzZZhITCt-77" style="edgeStyle=orthogonalEdgeStyle;rounded=0;orthogonalLoop=1;jettySize=auto;html=1;exitX=1;exitY=1;exitDx=0;exitDy=0;entryX=0.25;entryY=0;entryDx=0;entryDy=0;" edge="1" parent="1" source="x2BgTqmQhDXGzZZhITCt-12" target="x2BgTqmQhDXGzZZhITCt-54">
          <mxGeometry relative="1" as="geometry">
            <Array as="points">
              <mxPoint x="230" y="420" />
              <mxPoint x="768" y="420" />
            </Array>
          </mxGeometry>
        </mxCell>
        <mxCell id="x2BgTqmQhDXGzZZhITCt-78" style="edgeStyle=orthogonalEdgeStyle;rounded=0;orthogonalLoop=1;jettySize=auto;html=1;exitX=0.5;exitY=1;exitDx=0;exitDy=0;entryX=0.5;entryY=0;entryDx=0;entryDy=0;" edge="1" parent="1" source="x2BgTqmQhDXGzZZhITCt-15" target="x2BgTqmQhDXGzZZhITCt-54">
          <mxGeometry relative="1" as="geometry">
            <Array as="points">
              <mxPoint x="295" y="430" />
              <mxPoint x="805" y="430" />
            </Array>
          </mxGeometry>
        </mxCell>
        <mxCell id="x2BgTqmQhDXGzZZhITCt-79" style="edgeStyle=orthogonalEdgeStyle;rounded=0;orthogonalLoop=1;jettySize=auto;html=1;exitX=0.75;exitY=1;exitDx=0;exitDy=0;entryX=0.25;entryY=0;entryDx=0;entryDy=0;" edge="1" parent="1" source="x2BgTqmQhDXGzZZhITCt-15" target="x2BgTqmQhDXGzZZhITCt-56">
          <mxGeometry relative="1" as="geometry">
            <Array as="points">
              <mxPoint x="323" y="390" />
              <mxPoint x="920" y="390" />
            </Array>
          </mxGeometry>
        </mxCell>
        <mxCell id="x2BgTqmQhDXGzZZhITCt-80" style="edgeStyle=orthogonalEdgeStyle;rounded=0;orthogonalLoop=1;jettySize=auto;html=1;exitX=0.75;exitY=1;exitDx=0;exitDy=0;entryX=0.5;entryY=0;entryDx=0;entryDy=0;" edge="1" parent="1" source="x2BgTqmQhDXGzZZhITCt-17" target="x2BgTqmQhDXGzZZhITCt-58">
          <mxGeometry relative="1" as="geometry" />
        </mxCell>
        <mxCell id="x2BgTqmQhDXGzZZhITCt-81" style="edgeStyle=orthogonalEdgeStyle;rounded=0;orthogonalLoop=1;jettySize=auto;html=1;exitX=1;exitY=0.5;exitDx=0;exitDy=0;entryX=0.5;entryY=0;entryDx=0;entryDy=0;" edge="1" parent="1" source="x2BgTqmQhDXGzZZhITCt-20" target="x2BgTqmQhDXGzZZhITCt-60">
          <mxGeometry relative="1" as="geometry" />
        </mxCell>
      </root>
    </mxGraphModel>
  </diagram>
</mxfile>
